<?xml version="1.0" encoding="UTF-8" standalone="no"?>
<!DOCTYPE svg PUBLIC "-//W3C//DTD SVG 1.1//EN" "http://www.w3.org/Graphics/SVG/1.1/DTD/svg11.dtd">
<svg width="164.57" height="164.57" viewBox="0.00 0.00 800.00 800.00" xmlns="http://www.w3.org/2000/svg" xmlns:xlink="http://www.w3.org/1999/xlink">
<g stroke-linecap="round" id="homebutton">
<path d="M99.53,239.52 C99.53,239.52 100.01,237.04 100.01,237.04 C100.05,244.81 98.29,278.90 97.77,295.05 C97.85,325.73 97.90,402.73 98.10,415.69 C98.53,432.78 99.22,462.74 99.49,475.61 C99.51,479.66 101.49,497.60 102.36,505.48 C103.28,516.61 103.43,523.17 103.42,534.48 C103.46,539.86 104.05,541.08 105.37,542.62" fill="none" stroke="rgb(35, 38, 53)" stroke-width="30.00" stroke-opacity="1.00" stroke-linejoin="round"/>
<path d="M101.15,540.61 C101.15,540.61 101.15,540.87 101.15,540.87 C101.15,540.87 102.60,541.40 103.29,541.63 C107.82,543.14 111.26,543.64 116.96,543.61 C119.30,543.67 138.34,546.45 145.50,547.57 C154.57,549.06 188.60,550.00 196.79,550.26 C221.41,550.82 236.17,549.88 254.29,549.26 C271.76,548.48 296.25,549.19 308.35,550.63 C319.60,551.98 339.00,552.77 363.78,552.70 C377.32,552.61 386.64,551.91 393.46,551.32 C393.46,551.32 436.74,550.60 446.90,550.56 C454.65,550.59 470.15,550.62 477.90,550.62 C487.62,550.53 520.58,546.58 535.18,544.97 C542.87,544.00 560.56,543.59 563.06,543.45 C574.75,542.50 600.90,540.99 613.32,539.95 C661.38,538.22 680.11,538.87 681.42,539.24" fill="none" stroke="rgb(35, 38, 53)" stroke-width="30.00" stroke-opacity="1.00" stroke-linejoin="round"/>
<path d="M686.49,537.11 C687.52,537.59 688.47,537.86 688.47,537.86 C689.85,537.89 692.58,533.03 694.44,527.73 C695.34,525.06 695.59,504.01 695.72,500.42 C695.94,496.35 696.04,490.58 695.93,487.56 C695.79,484.06 694.07,473.84 693.73,462.59 C692.89,431.93 692.05,380.45 691.70,347.66 C691.79,336.71 693.41,320.94 693.46,316.83 C693.38,309.55 693.26,294.12 692.72,287.72 C691.72,275.98 692.03,265.43 692.12,261.87 C692.27,253.92 692.43,238.72 691.80,233.63 C691.40,230.60 686.88,221.56 686.44,220.35 C686.44,220.35 685.43,221.58 685.43,221.58" fill="none" stroke="rgb(35, 38, 53)" stroke-width="30.00" stroke-opacity="1.00" stroke-linejoin="round"/>
<path d="M100.13,235.33 C99.89,238.18 99.17,246.93 99.15,247.43 C99.09,250.81 100.39,266.22 100.52,267.74 C100.56,268.22 100.56,268.70 100.61,269.17 C100.61,269.17 100.61,268.69 100.61,268.69" fill="none" stroke="rgb(35, 38, 53)" stroke-width="30.00" stroke-opacity="1.00" stroke-linejoin="round"/>
<path d="M102.60,231.53 C102.59,233.61 102.47,242.06 102.25,243.86 C102.01,245.87 100.95,250.80 100.81,250.39 C100.81,250.39 100.79,236.06 100.89,235.34 C100.96,234.90 101.14,234.19 101.45,233.20" fill="none" stroke="rgb(35, 38, 53)" stroke-width="30.00" stroke-opacity="1.00" stroke-linejoin="round"/>
<path d="M104.50,229.44 C104.50,229.44 104.46,229.38 104.46,229.38 C104.46,229.38 101.94,233.41 101.94,233.41 C109.30,231.72 128.87,227.26 131.45,226.74 C138.62,225.34 171.41,223.80 174.23,223.41 C183.64,222.10 218.48,220.52 231.97,220.52 C242.81,220.63 251.65,221.70 260.46,222.08 C289.41,222.71 348.34,223.98 378.31,224.63 C394.27,225.03 426.60,223.64 433.93,223.46 C439.06,223.35 471.68,220.54 489.28,220.03 C523.53,219.21 585.18,219.15 613.61,219.22 C623.62,219.17 659.71,218.26 675.53,217.88 C682.12,217.84 686.04,218.92 688.20,220.22 C688.20,220.22 688.04,222.50 688.04,222.50" fill="none" stroke="rgb(35, 38, 53)" stroke-width="30.00" stroke-opacity="1.00" stroke-linejoin="round"/>
<path d="M186.93,301.77 C186.96,304.74 186.31,311.49 185.82,314.05 C184.54,320.50 180.83,333.31 179.45,337.30 C167.74,368.15 140.14,440.94 133.51,461.01 C133.18,462.02 132.59,463.84 132.32,464.65" fill="none" stroke="rgb(35, 38, 53)" stroke-width="30.00" stroke-opacity="1.00" stroke-linejoin="round"/>
<path d="M182.80,310.35 C185.75,313.33 187.70,315.57 189.63,318.89 C192.80,324.44 196.19,333.45 199.08,342.86 C202.24,353.70 209.35,388.23 212.91,403.52 C214.72,410.70 219.12,426.46 221.30,433.45 C223.48,440.20 227.17,448.95 229.94,453.48 C229.94,453.48 229.64,450.06 229.64,450.06" fill="none" stroke="rgb(35, 38, 53)" stroke-width="30.00" stroke-opacity="1.00" stroke-linejoin="round"/>
<path d="M152.37,388.99 C152.37,388.99 150.99,390.28 150.99,390.28 C161.09,390.36 169.21,390.13 179.04,389.43 C195.30,387.91 209.02,385.26 209.42,385.14 C209.78,385.03 210.51,384.77 211.62,384.34" fill="none" stroke="rgb(35, 38, 53)" stroke-width="30.00" stroke-opacity="1.00" stroke-linejoin="round"/>
<path d="M257.78,317.69 C260.21,327.17 261.69,335.39 262.71,343.34 C263.56,350.89 265.57,392.94 266.29,410.07 C267.35,430.75 269.10,437.86 269.56,439.49 C269.56,439.49 269.37,429.29 269.37,429.29" fill="none" stroke="rgb(35, 38, 53)" stroke-width="30.00" stroke-opacity="1.00" stroke-linejoin="round"/>
<path d="M257.89,341.76 C257.47,339.52 257.23,337.65 257.23,335.99 C257.28,332.47 259.38,326.68 260.98,323.80 C262.58,320.96 265.34,316.90 267.22,314.61 C269.03,312.44 273.48,308.53 275.48,307.30 C277.61,306.03 282.86,304.15 285.50,303.85 C288.47,303.55 293.33,304.06 296.17,304.98 C298.75,305.85 303.62,308.97 305.41,310.72 C307.12,312.42 310.39,317.31 311.45,319.96 C312.64,322.99 313.71,328.44 313.80,332.02 C313.86,335.33 312.63,342.62 311.60,345.82 C309.38,352.55 301.56,364.49 297.72,368.75 C295.71,370.96 286.39,379.98 285.68,381.06 C287.80,381.67 295.24,382.25 298.05,382.74 C301.08,383.28 309.03,385.62 311.42,386.72 C313.15,387.53 319.07,391.30 321.31,393.31 C323.67,395.46 327.76,400.39 329.45,403.17 C331.08,405.90 333.64,411.79 334.52,414.77 C335.37,417.73 336.22,423.53 336.21,426.26 C336.18,428.97 335.25,434.01 334.37,436.28 C333.47,438.54 330.86,442.50 329.13,444.21 C327.41,445.88 323.24,448.69 320.84,449.81 C316.22,451.93 305.02,454.08 300.68,453.75 C298.46,453.56 291.58,451.36 290.19,450.43 C288.67,449.39 286.49,446.98 285.54,445.34 C284.76,443.93 283.92,441.25 283.92,439.98 C283.93,438.89 284.43,436.30 284.83,434.58" fill="none" stroke="rgb(35, 38, 53)" stroke-width="30.00" stroke-opacity="1.00" stroke-linejoin="round"/>
<path d="M397.06,327.61 C395.31,326.54 392.37,325.08 390.68,324.59 C388.88,324.08 381.79,324.78 379.80,326.21 C378.32,327.32 373.74,333.52 372.32,336.24 C369.88,340.96 365.20,354.55 363.70,361.69 C362.40,367.89 360.39,381.37 360.00,388.87 C359.65,396.04 359.63,408.50 360.81,414.78 C361.49,418.25 363.04,425.49 364.38,428.78 C365.44,431.33 370.06,438.45 372.58,440.98 C375.22,443.58 381.51,447.56 385.15,449.03 C388.68,450.43 396.32,452.19 400.24,452.54 C404.12,452.86 411.74,452.49 415.34,451.80 C418.95,451.07 425.50,448.61 428.40,446.89 C431.30,445.11 436.30,440.52 438.42,437.71 C440.49,434.93 443.81,428.51 445.08,424.91 C447.45,418.06 448.93,405.24 448.82,399.86 C448.69,394.33 446.85,383.23 445.21,377.88 C443.62,372.80 438.40,361.24 434.23,354.95 C432.25,352.00 426.65,345.10 425.76,344.17 C423.69,342.01 416.74,336.54 414.71,335.24 C412.61,333.93 409.49,332.52 407.91,332.31 C406.57,332.14 403.68,332.30 401.75,332.52" fill="none" stroke="rgb(35, 38, 53)" stroke-width="30.00" stroke-opacity="1.00" stroke-linejoin="round"/>
<path d="M490.87,321.92 C489.42,322.98 487.75,328.06 487.39,331.29 C486.88,336.13 486.39,354.44 486.35,362.21 C486.52,372.68 487.18,384.28 488.24,392.42 C489.91,404.02 491.48,413.25 493.45,419.79 C494.51,423.20 496.72,430.22 498.08,433.18 C499.06,435.28 502.77,441.01 504.52,442.86 C506.30,444.70 510.18,447.34 512.32,448.25 C514.38,449.10 518.90,450.09 521.25,450.27 C523.62,450.43 528.51,450.05 530.98,449.50 C533.59,448.90 538.65,446.83 541.09,445.30 C543.64,443.67 548.26,439.41 550.35,436.67 C554.21,431.48 558.92,419.97 560.61,413.56 C562.24,407.34 564.40,391.58 564.52,383.66 C564.60,377.06 563.74,359.80 562.29,352.29 C561.23,346.88 558.00,336.47 556.65,333.39 C555.81,331.50 554.34,329.13 553.10,327.53 C552.86,327.23 552.38,326.64 551.66,325.77" fill="none" stroke="rgb(35, 38, 53)" stroke-width="30.00" stroke-opacity="1.00" stroke-linejoin="round"/>
<path d="M610.17,317.79 C610.14,332.10 610.25,363.05 610.38,379.68 C610.73,394.39 611.67,424.88 612.25,440.65 C612.51,445.54 612.97,449.87 613.74,453.71" fill="none" stroke="rgb(35, 38, 53)" stroke-width="30.00" stroke-opacity="1.00" stroke-linejoin="round"/>
<path d="M572.34,319.34 C575.83,320.71 586.44,321.44 595.41,321.48 C603.54,321.41 615.53,320.25 626.18,318.76 C634.55,317.38 656.31,313.79 658.00,313.56 C658.34,313.52 658.51,313.48 658.52,313.45" fill="none" stroke="rgb(35, 38, 53)" stroke-width="30.00" stroke-opacity="1.00" stroke-linejoin="round"/>
</g>
</svg>
