<?xml version="1.0" encoding="UTF-8" standalone="no"?>
<!DOCTYPE svg PUBLIC "-//W3C//DTD SVG 1.1//EN" "http://www.w3.org/Graphics/SVG/1.1/DTD/svg11.dtd">
<svg width="164.57" height="164.57" viewBox="0.00 0.00 800.00 800.00" xmlns="http://www.w3.org/2000/svg" xmlns:xlink="http://www.w3.org/1999/xlink">
<g stroke-linecap="round" id="Layer_1">
<path d="M57.03,229.36 C57.03,229.36 57.14,228.56 57.14,228.56 C58.67,243.82 59.99,267.17 60.56,282.86 C60.84,318.53 61.07,384.23 61.01,414.26 C60.96,421.67 65.02,465.74 65.52,475.94 C65.76,483.79 65.90,500.25 65.91,508.85 C65.79,519.33 64.60,539.44 64.55,542.37 C64.55,542.37 64.37,541.02 64.37,541.02" fill="none" stroke="rgb(35, 38, 53)" stroke-width="30.00" stroke-opacity="1.00" stroke-linejoin="round"/>
<path d="M64.37,541.02 L747.12,541.04" fill="none" stroke="rgb(35, 38, 53)" stroke-width="30.00" stroke-opacity="1.00" stroke-linejoin="round"/>
<path d="M747.12,541.04 C747.12,541.04 748.86,540.93 748.86,540.93" fill="none" stroke="rgb(35, 38, 53)" stroke-width="30.00" stroke-opacity="1.00" stroke-linejoin="round"/>
<path d="M749.01,222.19" fill="none" stroke="rgb(35, 38, 53)" stroke-width="30.00" stroke-opacity="1.00" stroke-linejoin="round"/>
<path d="M748.76,226.46 C749.05,226.51 749.24,226.64 749.33,226.87 C750.10,228.86 751.84,271.11 752.44,287.23 C752.76,299.53 752.50,335.08 752.82,345.22 C753.16,352.43 754.84,366.50 755.32,374.97 C755.65,384.43 755.59,415.95 756.11,432.97 C756.90,449.54 758.06,479.15 757.85,496.55 C757.93,505.87 755.93,520.02 755.71,523.53 C755.37,531.22 754.79,538.44 754.48,539.78 C753.01,539.82 748.28,539.93 747.08,539.93 C744.65,539.90 741.65,539.16 740.31,538.28 C739.95,538.04 739.54,537.61 739.05,536.99" fill="none" stroke="rgb(35, 38, 53)" stroke-width="30.00" stroke-opacity="1.00" stroke-linejoin="round"/>
<path d="M58.87,227.82 C59.14,228.03 59.42,228.15 59.71,228.18 C60.94,228.28 78.36,225.48 83.51,225.11 C90.07,224.66 178.17,224.46 203.82,223.55 C236.82,223.41 298.72,222.79 327.64,222.30 C359.78,222.07 423.85,221.69 455.78,221.54 C469.85,221.69 498.34,222.56 512.75,223.27 C544.74,224.00 611.41,224.04 645.73,224.06 C677.74,224.00 734.04,222.39 745.85,222.31 C746.54,223.82 747.86,226.67 748.02,227.04 C748.57,228.34 748.75,230.02 748.76,233.11 C748.75,234.45 748.74,235.18 748.74,235.28 C748.72,235.45 748.67,235.56 748.60,235.63" fill="none" stroke="rgb(35, 38, 53)" stroke-width="30.00" stroke-opacity="1.00" stroke-linejoin="round"/>
<path d="M71.76,224.48 C67.80,225.22 62.65,226.40 62.11,226.90 C60.94,228.04 59.23,232.71 58.99,235.78 C58.63,241.11 58.60,242.81 58.61,245.47 C58.61,238.61 59.62,229.57 60.44,227.66 C60.92,226.62 62.44,225.93 64.27,225.58 C64.68,225.51 65.00,225.45 65.23,225.41" fill="none" stroke="rgb(35, 38, 53)" stroke-width="30.00" stroke-opacity="1.00" stroke-linejoin="round"/>
<path d="M144.63,335.50 C144.63,335.50 148.07,331.83 148.07,331.83 C143.92,330.76 135.68,330.78 133.64,331.33 C131.78,331.88 125.98,335.15 123.45,337.61 C120.82,340.21 116.72,346.02 115.42,348.41 C112.17,354.51 108.43,368.04 107.51,374.31 C106.57,380.90 105.56,396.38 105.82,401.94 C106.05,406.46 106.73,411.69 107.43,413.67 C108.42,416.35 110.04,419.41 111.46,421.02 C112.81,422.51 116.26,425.00 118.30,425.98 C120.34,426.94 124.81,428.25 127.17,428.57 C129.60,428.88 134.58,428.74 137.03,428.29 C139.69,427.76 143.80,426.21 146.95,424.64 C149.32,423.42 154.08,419.65 157.50,416.39 C160.59,413.43 165.45,407.31 167.47,404.06 C168.94,401.65 172.21,395.10 173.08,392.69 C173.97,390.10 174.59,384.29 173.54,381.26 C173.08,380.03 171.09,377.68 169.87,376.84 C167.17,375.09 160.11,373.76 156.04,374.18 C149.57,374.94 139.70,380.13 138.53,381.47 C140.38,381.25 173.01,371.01 174.60,370.92 C176.05,370.87 179.66,371.20 180.69,371.64 C182.77,372.59 185.12,378.08 185.79,381.60 C186.84,387.42 186.60,402.83 185.56,409.95 C184.56,416.64 182.72,423.66 182.24,425.45 C182.29,425.34 182.34,425.25 182.39,425.16 C182.44,425.08 182.57,424.89 182.77,424.60" fill="none" stroke="rgb(14, 14, 14)" stroke-width="26.14" stroke-opacity="1.00" stroke-linejoin="round"/>
<path d="M484.64,344.29 C484.64,345.08 484.64,345.87 484.64,346.65 C484.82,360.62 485.26,392.85 485.51,411.12 C485.59,417.02 485.72,424.57 485.87,427.54 C485.87,427.54 486.58,423.21 486.58,423.21" fill="none" stroke="rgb(14, 14, 14)" stroke-width="26.14" stroke-opacity="1.00" stroke-linejoin="round"/>
<path d="M487.21,351.87 C494.96,350.08 505.25,348.87 513.09,348.70 C516.81,348.67 525.61,348.68 525.78,348.74 C526.00,348.81 526.23,349.05 526.49,349.46" fill="none" stroke="rgb(14, 14, 14)" stroke-width="26.14" stroke-opacity="1.00" stroke-linejoin="round"/>
<path d="M492.00,378.67 C492.00,378.67 516.54,377.26 516.54,377.26 C516.54,377.26 516.52,377.91 516.52,377.91" fill="none" stroke="rgb(14, 14, 14)" stroke-width="26.14" stroke-opacity="1.00" stroke-linejoin="round"/>
<path d="M487.77,423.35 C489.41,423.24 490.47,423.07 492.75,422.53 C500.13,420.78 508.25,419.76 519.20,419.13 C530.70,418.52 535.93,417.85 537.36,417.53 C537.90,417.41 538.44,417.29 538.98,417.16" fill="none" stroke="rgb(14, 14, 14)" stroke-width="26.14" stroke-opacity="1.00" stroke-linejoin="round"/>
<path d="M576.10,342.57 C576.21,342.60 576.31,343.77 576.27,345.66 C576.20,349.27 574.97,363.93 574.63,374.49 C574.45,391.55 574.26,422.73 574.60,428.48 C574.60,428.48 574.76,423.57 574.76,423.57" fill="none" stroke="rgb(14, 14, 14)" stroke-width="28.38" stroke-opacity="1.00" stroke-linejoin="round"/>
<path d="M576.57,339.24 C575.70,340.66 575.44,341.36 575.49,341.27 C575.49,341.26 574.29,354.72 574.15,367.13 C574.15,375.06 574.15,384.17 574.15,385.34 C574.15,385.34 575.18,370.82 575.18,370.82" fill="none" stroke="rgb(14, 14, 14)" stroke-width="28.38" stroke-opacity="1.00" stroke-linejoin="round"/>
<path d="M577.65,344.65 C577.62,344.17 577.62,343.78 577.65,343.48 C577.80,341.87 578.41,340.10 579.35,339.21 C581.44,337.26 586.14,335.18 588.33,334.68 C591.10,334.08 596.95,334.30 599.71,335.30 C602.57,336.39 607.32,340.42 609.19,343.24 C610.89,345.86 613.15,351.80 613.72,354.73 C614.25,357.63 614.14,363.04 613.43,365.59 C612.70,368.09 609.38,373.24 608.08,374.50 C603.31,378.96 583.37,388.64 583.50,388.77 C584.92,388.66 587.39,389.40 589.06,390.65 C589.64,391.09 606.20,410.69 607.98,412.40 C613.94,417.99 621.58,424.14 625.25,425.48 C626.17,425.80 629.55,426.68 630.73,426.91 C631.25,427.01 632.40,427.21 634.19,427.52" fill="none" stroke="rgb(14, 14, 14)" stroke-width="28.38" stroke-opacity="1.00" stroke-linejoin="round"/>
<path d="M579.39,353.59 C579.39,353.59 578.87,353.47 578.87,353.47 C578.83,350.78 578.90,349.19 579.18,347.98 C579.68,345.79 581.32,342.20 582.55,340.35 C583.80,338.52 587.07,335.32 588.72,334.37 C590.64,333.32 595.67,332.56 598.90,332.80 C601.46,333.02 606.26,335.55 608.01,337.15 C608.88,337.98 611.29,340.81 612.17,342.05 C613.83,344.48 614.63,349.59 614.77,355.70 C614.79,357.47 614.79,361.04 614.77,362.85 C614.73,364.51 613.83,366.58 612.48,368.17 C612.10,368.61 611.35,369.33 610.23,370.34" fill="none" stroke="rgb(14, 14, 14)" stroke-width="28.38" stroke-opacity="1.00" stroke-linejoin="round"/>
<path d="M701.10,335.39 C701.10,335.39 701.52,334.66 701.52,334.66 C700.75,339.99 691.29,377.49 686.69,394.03 C682.08,409.86 675.10,433.71 674.19,436.25 C674.19,436.25 673.34,435.06 673.34,435.06" fill="none" stroke="rgb(14, 14, 14)" stroke-width="28.38" stroke-opacity="1.00" stroke-linejoin="round"/>
<path d="M654.28,341.17 C655.71,343.32 656.37,344.42 657.22,346.08 C664.04,359.16 676.41,381.40 677.48,382.21 C677.73,382.40 678.36,382.74 679.36,383.22 C679.36,383.22 679.43,382.31 679.43,382.31" fill="none" stroke="rgb(14, 14, 14)" stroke-width="28.38" stroke-opacity="1.00" stroke-linejoin="round"/>
<path d="M649.52,333.48 C649.52,333.48 649.44,332.83 649.44,332.83 C650.64,335.64 653.24,340.63 659.12,350.04 C666.92,362.00 682.76,382.94 687.22,390.29 C687.52,390.80 687.82,391.30 688.12,391.80" fill="none" stroke="rgb(14, 14, 14)" stroke-width="28.38" stroke-opacity="1.00" stroke-linejoin="round"/>
<path d="M255.66,325.54 C255.72,326.28 255.74,326.79 255.70,327.06 C255.68,327.23 243.70,365.71 239.19,380.72 C234.13,397.01 221.01,431.93 220.81,433.67 C220.71,434.65 220.78,435.15 221.00,435.16 C221.09,435.16 221.30,434.77 221.63,433.99" fill="none" stroke="rgb(14, 14, 14)" stroke-width="30.00" stroke-opacity="1.00" stroke-linejoin="round"/>
<path d="M255.41,329.46 C255.41,329.46 255.81,329.10 255.81,329.10 C258.92,334.03 261.47,340.54 265.51,351.49 C269.36,361.25 282.63,391.44 288.29,405.72 C289.85,409.88 292.74,417.62 294.06,421.19 C295.23,424.34 296.55,427.38 296.77,427.79 C296.84,427.91 296.91,427.99 296.99,428.03" fill="none" stroke="rgb(14, 14, 14)" stroke-width="30.00" stroke-opacity="1.00" stroke-linejoin="round"/>
<path d="M237.35,388.90 C237.35,388.90 236.37,389.42 236.37,389.42 C243.28,389.92 256.89,390.79 262.15,390.41 C266.05,390.09 271.31,389.82 273.73,390.08 C275.27,390.25 280.45,391.18 281.78,391.37 C273.22,391.85 263.12,393.17 257.30,392.73 C254.16,392.47 249.78,391.64 248.14,391.28" fill="none" stroke="rgb(14, 14, 14)" stroke-width="30.00" stroke-opacity="1.00" stroke-linejoin="round"/>
<path d="M412.36,342.88 C413.05,345.26 413.38,347.84 413.68,353.17 C414.46,368.71 416.62,398.63 416.71,413.29 C416.72,421.17 418.35,426.14 418.84,427.14 C423.16,426.66 428.21,425.48 430.77,425.17 C432.90,424.92 441.87,424.45 445.48,424.10 C448.03,423.85 458.27,421.43 459.29,421.36" fill="none" stroke="rgb(14, 14, 14)" stroke-width="30.00" stroke-opacity="1.00" stroke-linejoin="round"/>
<path d="M339.72,338.83 C339.72,338.83 338.72,336.49 338.72,336.49 C338.72,336.49 344.14,426.64 344.14,426.64 C344.14,426.64 382.94,425.05 382.94,425.05" fill="none" stroke="rgb(14, 14, 14)" stroke-width="30.00" stroke-opacity="1.00" stroke-linejoin="round"/>
</g>
</svg>
