<?xml version="1.0" encoding="UTF-8" standalone="no"?>
<!DOCTYPE svg PUBLIC "-//W3C//DTD SVG 1.1//EN" "http://www.w3.org/Graphics/SVG/1.1/DTD/svg11.dtd">
<svg width="164.57" height="164.57" viewBox="0.00 0.00 800.00 800.00" xmlns="http://www.w3.org/2000/svg" xmlns:xlink="http://www.w3.org/1999/xlink">
<g stroke-linecap="round" id="Layer_2">
<path d="M99.53,239.52 C99.53,239.52 100.01,237.04 100.01,237.04 C100.05,244.81 98.29,278.90 97.77,295.05 C97.85,325.73 97.90,402.73 98.10,415.69 C98.53,432.78 99.22,462.74 99.49,475.61 C99.51,479.66 101.49,497.60 102.36,505.48 C103.28,516.61 103.43,523.17 103.42,534.48 C103.46,539.86 104.05,541.08 105.37,542.62" fill="none" stroke="rgb(35, 38, 53)" stroke-width="30.00" stroke-opacity="1.00" stroke-linejoin="round"/>
<path d="M101.15,540.61 C101.15,540.81 101.15,540.87 101.15,540.87 C101.12,540.86 102.60,541.40 103.29,541.63 C107.82,543.14 111.26,543.64 116.96,543.61 C119.30,543.67 138.34,546.45 145.50,547.57 C154.57,549.06 188.60,550.00 196.79,550.26 C221.41,550.82 236.17,549.88 254.29,549.26 C271.76,548.48 296.25,549.19 308.35,550.63 C319.60,551.98 339.00,552.77 363.78,552.70 C377.32,552.61 386.64,551.91 393.46,551.32 C393.64,551.32 436.74,550.60 446.90,550.56 C454.65,550.59 470.15,550.62 477.90,550.62 C487.62,550.53 520.58,546.58 535.18,544.97 C542.87,544.00 560.56,543.59 563.06,543.45 C574.75,542.50 600.91,540.99 613.33,539.95 C661.39,538.22 680.12,538.87 681.43,539.24" fill="none" stroke="rgb(35, 38, 53)" stroke-width="30.00" stroke-opacity="1.00" stroke-linejoin="round"/>
<path d="M686.50,537.11 C687.53,537.59 688.19,537.84 688.48,537.86 C689.86,537.89 692.59,533.03 694.45,527.73 C695.35,525.06 695.60,504.01 695.73,500.42 C695.95,496.35 696.05,490.58 695.94,487.56 C695.80,484.06 694.08,473.84 693.74,462.59 C692.90,431.93 692.06,380.45 691.71,347.66 C691.80,336.71 693.42,320.94 693.47,316.83 C693.39,309.55 693.27,294.12 692.73,287.72 C691.73,275.98 692.04,265.43 692.13,261.87 C692.28,253.92 692.44,238.72 691.81,233.63 C691.41,230.60 686.89,221.56 686.45,220.35 C686.45,220.35 685.44,221.58 685.44,221.58" fill="none" stroke="rgb(35, 38, 53)" stroke-width="30.00" stroke-opacity="1.00" stroke-linejoin="round"/>
<path d="M100.13,235.33 C99.89,238.18 99.17,246.93 99.15,247.43 C99.09,250.81 100.39,266.22 100.52,267.74 C100.56,268.22 100.56,268.70 100.61,269.17 C100.62,269.33 100.61,268.85 100.61,268.69" fill="none" stroke="rgb(35, 38, 53)" stroke-width="30.00" stroke-opacity="1.00" stroke-linejoin="round"/>
<path d="M102.60,231.53 C102.59,233.61 102.47,242.06 102.25,243.86 C102.01,245.87 100.95,250.80 100.81,250.39 C100.74,250.13 100.79,236.06 100.89,235.34 C100.96,234.90 101.14,234.19 101.45,233.20" fill="none" stroke="rgb(35, 38, 53)" stroke-width="30.00" stroke-opacity="1.00" stroke-linejoin="round"/>
<path d="M104.50,229.44 C104.50,229.44 104.46,229.38 104.46,229.38 C104.46,229.38 101.94,233.41 101.94,233.41 C109.30,231.72 128.87,227.26 131.45,226.74 C138.62,225.34 171.41,223.80 174.23,223.41 C183.64,222.10 218.48,220.52 231.97,220.52 C242.81,220.63 251.65,221.70 260.46,222.08 C289.41,222.71 348.34,223.98 378.31,224.63 C394.27,225.03 426.60,223.64 433.93,223.46 C439.06,223.35 471.68,220.54 489.28,220.03 C523.53,219.21 585.19,219.15 613.62,219.22 C623.63,219.17 659.72,218.26 675.54,217.88 C682.13,217.84 686.05,218.92 688.21,220.22 C688.21,220.22 688.05,222.50 688.05,222.50" fill="none" stroke="rgb(35, 38, 53)" stroke-width="30.00" stroke-opacity="1.00" stroke-linejoin="round"/>
<path d="M148.84,282.12 C148.83,280.90 148.84,280.13 148.85,279.81 C148.87,279.49 148.92,279.19 149.00,278.89 C149.61,283.32 152.23,352.50 152.55,401.17 C152.55,415.24 152.48,438.17 151.25,457.96 C150.82,467.31 152.46,474.41 153.66,477.19 C153.66,477.19 154.52,476.14 154.52,476.14" fill="none" stroke="rgb(35, 38, 53)" stroke-width="30.00" stroke-opacity="1.00" stroke-linejoin="round"/>
<path d="M227.06,274.89 C227.06,274.89 227.62,272.62 227.62,272.62 C227.69,274.02 227.75,323.91 228.16,331.89 C229.15,345.38 231.29,370.98 231.92,389.69 C232.57,414.91 234.89,435.41 234.86,444.93 C234.86,450.40 237.38,477.86 238.26,479.79 C238.40,480.09 238.60,480.33 238.87,480.50" fill="none" stroke="rgb(35, 38, 53)" stroke-width="30.00" stroke-opacity="1.00" stroke-linejoin="round"/>
<path d="M152.97,385.12 C153.13,385.98 153.28,386.49 153.41,386.66 C153.75,387.10 169.63,386.96 176.27,386.90 C182.00,386.93 198.91,388.06 205.01,388.00 C208.06,387.99 228.74,388.92 230.30,389.24" fill="none" stroke="rgb(35, 38, 53)" stroke-width="30.00" stroke-opacity="1.00" stroke-linejoin="round"/>
<path d="M321.00,374.61 C319.16,374.92 315.93,376.02 311.24,378.05 C307.86,379.57 306.05,380.98 302.23,384.61 C298.47,388.19 294.30,392.47 292.90,394.68 C292.61,395.15 289.20,402.27 287.80,405.27 C285.57,410.05 284.57,413.71 284.45,417.73 C284.24,426.23 285.09,438.54 286.51,446.72 C287.33,451.38 288.96,456.35 290.34,459.31 C292.05,462.94 295.27,467.94 297.36,469.92 C298.58,471.03 305.63,474.77 308.71,476.36 C313.89,478.96 317.89,480.56 321.70,481.30 C322.21,481.40 332.43,483.37 336.52,483.67 C339.40,483.87 346.57,483.41 350.05,482.91 C353.89,482.35 361.40,479.92 363.63,478.84 C366.53,477.39 375.67,467.96 379.48,462.77 C379.95,462.13 384.91,454.86 385.98,452.66 C387.74,448.93 389.15,441.83 389.31,437.30 C389.38,434.63 389.34,424.28 389.13,422.68 C388.36,416.89 384.32,407.72 378.71,397.79 C376.57,394.01 375.20,392.00 372.79,389.59 C369.58,386.43 365.56,383.38 361.95,381.38 C356.29,378.31 343.90,375.18 338.23,374.66 C335.36,374.41 326.96,374.83 325.82,375.04 C322.04,375.76 310.93,380.73 310.46,381.03 C310.06,381.27 309.25,381.87 308.02,382.81" fill="none" stroke="rgb(35, 38, 53)" stroke-width="30.00" stroke-opacity="1.00" stroke-linejoin="round"/>
<path d="M419.24,391.31 C419.24,391.31 419.53,391.31 419.53,391.31 C419.94,407.99 422.23,436.35 422.37,450.61 C422.38,466.70 422.43,484.86 422.46,486.94 C423.81,483.70 431.66,438.51 432.48,434.97 C434.11,428.04 439.95,415.99 442.85,411.76 C445.49,407.95 455.22,396.77 458.35,394.65 C460.75,393.07 466.23,391.27 469.52,390.90 C472.06,390.67 477.00,393.08 481.62,396.31 C483.57,397.71 485.62,399.92 486.41,401.52 C487.71,404.29 489.22,421.49 489.85,428.82 C490.11,432.83 490.56,441.01 490.46,443.73 C490.33,446.79 488.75,460.23 488.63,462.35 C491.18,455.82 496.87,441.22 500.02,433.16 C503.18,425.23 507.18,416.72 510.46,411.58 C512.77,408.04 517.44,400.98 519.17,399.21 C519.98,398.40 526.47,394.50 527.31,394.24 C529.82,393.50 538.38,392.92 541.80,392.84 C543.93,392.81 546.06,393.32 547.22,394.11 C549.44,395.75 553.84,408.78 555.42,417.27 C557.40,428.36 558.85,439.31 559.04,448.03 C559.15,475.68 559.89,478.49 560.28,481.63 C560.31,481.95 560.29,481.00 560.28,480.68" fill="none" stroke="rgb(35, 38, 53)" stroke-width="30.00" stroke-opacity="1.00" stroke-linejoin="round"/>
<path d="M595.60,410.38 C595.60,410.38 595.37,410.89 595.37,410.89 C596.16,411.46 603.31,411.84 605.20,411.73 C608.89,411.49 624.41,406.12 627.77,404.22 C630.08,402.88 634.44,399.08 636.46,397.27 C638.08,395.81 638.91,394.78 639.32,393.59 C640.28,390.62 640.73,384.88 640.16,382.45 C639.88,381.41 638.74,380.17 637.40,379.34 C634.33,377.59 628.64,376.88 625.74,377.41 C623.26,377.93 620.83,379.22 616.93,381.81 C611.31,385.57 608.12,387.89 606.06,390.10 C602.57,393.89 599.60,397.54 597.72,400.76 C596.63,402.66 592.75,410.08 591.84,412.21 C590.98,414.28 590.06,419.36 589.95,423.38 C589.83,429.29 589.87,437.08 590.08,439.62 C590.43,443.44 592.81,450.66 594.24,453.75 C595.80,457.06 598.74,461.43 600.72,463.33 C602.81,465.27 607.73,468.77 610.78,469.80 C613.53,470.69 619.07,471.56 622.62,471.72 C624.77,471.80 632.26,471.69 634.56,470.78 C635.15,470.54 644.05,465.91 647.08,464.00 C649.49,462.42 654.13,456.62 655.25,454.28 C655.37,454.03 655.30,453.92 655.04,453.97" fill="none" stroke="rgb(35, 38, 53)" stroke-width="30.00" stroke-opacity="1.00" stroke-linejoin="round"/>
</g>
</svg>
