<?xml version="1.0" encoding="UTF-8" standalone="no"?>
<!DOCTYPE svg PUBLIC "-//W3C//DTD SVG 1.1//EN" "http://www.w3.org/Graphics/SVG/1.1/DTD/svg11.dtd">
<svg width="164.57" height="164.57" viewBox="0.00 0.00 800.00 800.00" xmlns="http://www.w3.org/2000/svg" xmlns:xlink="http://www.w3.org/1999/xlink">
<g stroke-linecap="round" id="Layer_1">
<path d="M102.96,328.34 C103.33,328.26 103.98,332.24 104.40,336.76 C105.50,349.96 106.37,413.69 106.47,428.42 C106.65,436.99 107.68,450.41 109.07,454.24 C109.29,454.82 109.50,455.39 109.72,455.96 C109.72,455.96 109.85,455.58 109.85,455.58" fill="none" stroke="rgb(35, 38, 53)" stroke-width="27.13" stroke-opacity="1.00" stroke-linejoin="round"/>
<path d="M102.84,338.21 C102.40,336.29 103.81,331.45 106.02,328.32 C108.32,325.19 113.61,320.71 117.23,318.69 C119.02,317.72 123.73,316.74 125.38,316.67 C127.59,316.58 132.00,317.50 134.22,318.53 C136.39,319.56 140.26,322.46 141.98,324.33 C143.67,326.20 146.33,330.44 147.29,332.79 C148.23,335.14 149.26,339.98 149.36,342.50 C149.44,345.01 148.77,349.98 148.02,352.48 C146.52,357.32 140.59,366.45 136.48,370.64 C132.59,374.56 123.74,380.94 121.09,381.99 C117.13,383.47 113.02,383.61 111.90,382.72 C111.43,382.34 110.80,381.31 109.99,379.64" fill="none" stroke="rgb(35, 38, 53)" stroke-width="27.13" stroke-opacity="1.00" stroke-linejoin="round"/>
<path d="M185.86,324.50 C185.93,328.45 186.07,335.23 186.14,338.07 C186.47,354.19 186.78,384.72 186.56,399.58 C186.05,416.12 185.26,441.14 185.48,442.97 C185.84,442.34 186.06,441.88 186.14,441.59 C186.22,441.31 186.26,440.81 186.26,440.08" fill="none" stroke="rgb(35, 38, 53)" stroke-width="27.13" stroke-opacity="1.00" stroke-linejoin="round"/>
<path d="M182.26,336.73 C182.18,335.02 183.81,331.40 185.97,329.34 C188.21,327.24 193.78,323.60 196.17,322.53 C198.48,321.51 206.01,319.22 208.27,318.94 C209.80,318.77 215.78,319.04 218.12,319.58 C220.63,320.18 224.98,322.24 226.84,323.69 C228.68,325.15 231.54,328.81 232.56,330.96 C233.55,333.09 234.67,337.78 234.80,340.28 C234.90,342.73 234.27,347.75 233.47,350.61 C232.51,353.96 230.95,357.71 228.94,361.09 C226.36,365.40 222.58,370.48 219.67,373.55 C210.46,383.14 197.53,390.41 197.42,390.50 C200.80,390.81 204.77,392.80 206.68,394.46 C208.89,396.43 222.82,413.23 225.15,415.57 C227.68,418.09 239.27,426.57 243.83,428.60 C246.24,429.66 261.35,435.56 265.09,437.04 C265.67,437.28 266.33,437.55 267.07,437.87" fill="none" stroke="rgb(35, 38, 53)" stroke-width="27.13" stroke-opacity="1.00" stroke-linejoin="round"/>
<path d="M334.09,328.89 C333.58,328.14 332.23,326.72 331.29,326.26 C330.02,325.67 326.61,326.21 324.80,327.23 C323.52,327.98 318.59,333.10 317.12,335.56 C313.14,342.34 309.60,350.46 307.04,357.77 C305.03,363.70 301.63,377.94 300.75,384.33 C299.82,391.27 299.54,404.87 300.39,409.56 C301.26,414.16 303.11,419.90 304.87,422.87 C306.89,426.19 310.58,429.84 313.08,431.36 C315.41,432.74 320.83,434.58 323.81,435.10 C326.74,435.58 332.89,435.75 336.02,435.45 C339.15,435.14 345.27,433.77 348.09,432.74 C350.96,431.67 356.02,428.85 358.16,427.07 C360.28,425.27 363.72,420.99 365.01,418.54 C366.25,416.10 367.92,410.62 368.35,407.63 C368.76,404.64 368.76,398.27 368.36,394.93 C367.51,388.23 362.75,374.35 359.02,367.45 C355.48,360.95 346.48,348.43 342.54,344.23 C340.63,342.21 334.30,336.78 332.82,335.78 C329.59,333.66 327.29,333.21 325.41,333.07 C325.41,333.07 324.75,334.25 324.75,334.25" fill="none" stroke="rgb(35, 38, 53)" stroke-width="27.13" stroke-opacity="1.00" stroke-linejoin="round"/>
<path d="M407.95,331.65 C407.95,331.65 408.00,331.03 408.00,331.03 C409.46,337.61 410.46,349.22 411.02,359.39 C411.65,378.13 410.37,425.55 410.62,428.21 C410.78,429.86 411.41,430.83 412.64,431.82 C413.89,430.72 414.64,429.97 414.88,429.58 C415.12,429.19 415.18,428.62 415.08,427.87" fill="none" stroke="rgb(35, 38, 53)" stroke-width="27.13" stroke-opacity="1.00" stroke-linejoin="round"/>
<path d="M410.57,336.96 C412.02,336.05 412.91,335.56 414.64,334.76 C425.71,329.61 447.37,318.21 447.50,318.21 C447.67,318.22 447.79,318.51 447.85,319.07" fill="none" stroke="rgb(35, 38, 53)" stroke-width="27.13" stroke-opacity="1.00" stroke-linejoin="round"/>
<path d="M413.68,376.57 C415.17,376.61 416.28,376.40 417.93,375.50 C421.72,373.43 438.65,363.28 438.90,363.15 C439.22,362.99 439.76,362.76 440.52,362.47" fill="none" stroke="rgb(35, 38, 53)" stroke-width="27.13" stroke-opacity="1.00" stroke-linejoin="round"/>
<path d="M501.31,325.06 C501.31,325.06 501.31,324.07 501.31,324.07 C501.79,338.59 502.30,363.20 501.72,382.60 C501.34,390.17 500.59,405.73 500.22,413.71 C499.91,421.44 500.44,429.94 501.86,431.75 C502.13,432.09 502.64,432.27 503.38,432.31 C504.12,431.28 504.55,430.64 504.67,430.38 C504.79,430.12 504.79,429.89 504.65,429.69" fill="none" stroke="rgb(35, 38, 53)" stroke-width="27.13" stroke-opacity="1.00" stroke-linejoin="round"/>
<path d="M477.39,338.18 C478.64,337.57 479.49,337.21 481.41,336.50 C488.04,334.08 500.14,329.76 507.85,327.72 C521.41,324.27 539.95,322.14 540.52,322.14 C540.99,322.13 541.95,322.18 543.38,322.27" fill="none" stroke="rgb(35, 38, 53)" stroke-width="27.13" stroke-opacity="1.00" stroke-linejoin="round"/>
<path d="M472.07,440.73 C473.55,440.84 476.06,440.90 477.54,440.79 C481.15,440.53 498.26,435.46 506.06,433.11 C514.09,430.88 528.88,426.86 532.79,426.33 C533.41,426.25 534.02,426.18 534.63,426.10" fill="none" stroke="rgb(35, 38, 53)" stroke-width="27.13" stroke-opacity="1.00" stroke-linejoin="round"/>
<path d="M575.13,331.18 C575.13,331.18 575.76,329.44 575.76,329.44 C575.78,342.75 570.93,414.16 571.15,418.52 C571.28,420.96 572.30,428.66 573.35,430.64 C573.72,431.30 576.46,434.08 577.08,434.49 C578.98,435.68 585.68,436.23 589.71,435.78 C594.54,435.21 607.52,431.18 611.97,429.02 C613.04,428.49 615.80,426.98 616.80,426.43" fill="none" stroke="rgb(35, 38, 53)" stroke-width="27.13" stroke-opacity="1.00" stroke-linejoin="round"/>
<path d="M57.03,229.36 C57.03,229.36 57.14,228.56 57.14,228.56 C58.67,243.82 59.99,267.17 60.56,282.86 C60.84,318.53 61.07,384.23 61.01,414.26 C60.96,421.67 65.02,465.74 65.52,475.94 C65.76,483.79 65.90,500.25 65.91,508.85 C65.79,519.33 64.60,539.44 64.55,542.37 C64.55,542.37 64.37,541.02 64.37,541.02" fill="none" stroke="rgb(35, 38, 53)" stroke-width="30.00" stroke-opacity="1.00" stroke-linejoin="round"/>
<path d="M64.37,541.02 L747.12,541.04" fill="none" stroke="rgb(35, 38, 53)" stroke-width="30.00" stroke-opacity="1.00" stroke-linejoin="round"/>
<path d="M747.12,541.04 C747.12,541.04 748.86,540.93 748.86,540.93" fill="none" stroke="rgb(35, 38, 53)" stroke-width="30.00" stroke-opacity="1.00" stroke-linejoin="round"/>
<path d="M749.01,222.19" fill="none" stroke="rgb(35, 38, 53)" stroke-width="30.00" stroke-opacity="1.00" stroke-linejoin="round"/>
<path d="M748.76,226.46 C749.05,226.51 749.24,226.64 749.33,226.87 C750.10,228.86 751.84,271.11 752.44,287.23 C752.76,299.53 752.50,335.08 752.82,345.22 C753.16,352.43 754.84,366.50 755.32,374.97 C755.65,384.43 755.59,415.95 756.11,432.97 C756.90,449.54 758.06,479.15 757.85,496.55 C757.93,505.87 755.93,520.02 755.71,523.53 C755.37,531.22 754.79,538.44 754.48,539.78 C753.01,539.82 748.28,539.93 747.08,539.93 C744.65,539.90 741.65,539.16 740.31,538.28 C739.95,538.04 739.54,537.61 739.05,536.99" fill="none" stroke="rgb(35, 38, 53)" stroke-width="30.00" stroke-opacity="1.00" stroke-linejoin="round"/>
<path d="M58.87,227.82 C59.14,228.03 59.42,228.15 59.71,228.18 C60.94,228.28 78.36,225.48 83.51,225.11 C90.07,224.66 178.17,224.46 203.82,223.55 C236.82,223.41 298.72,222.79 327.64,222.30 C359.78,222.07 423.85,221.69 455.78,221.54 C469.85,221.69 498.34,222.56 512.75,223.27 C544.74,224.00 611.41,224.04 645.73,224.06 C677.74,224.00 734.04,222.39 745.85,222.31 C746.54,223.82 747.86,226.67 748.02,227.04 C748.57,228.34 748.75,230.02 748.76,233.11 C748.75,234.45 748.74,235.18 748.74,235.28 C748.72,235.45 748.67,235.56 748.60,235.63" fill="none" stroke="rgb(35, 38, 53)" stroke-width="30.00" stroke-opacity="1.00" stroke-linejoin="round"/>
<path d="M71.76,224.48 C67.80,225.22 62.65,226.40 62.11,226.90 C60.94,228.04 59.23,232.71 58.99,235.78 C58.63,241.11 58.60,242.81 58.61,245.47 C58.61,238.61 59.62,229.57 60.44,227.66 C60.92,226.62 62.44,225.93 64.27,225.58 C64.68,225.51 65.00,225.45 65.23,225.41" fill="none" stroke="rgb(35, 38, 53)" stroke-width="30.00" stroke-opacity="1.00" stroke-linejoin="round"/>
<path d="M651.61,331.56 C651.13,337.19 649.49,374.46 649.22,390.46 C649.02,416.11 649.27,429.22 649.93,430.65 C649.93,430.65 650.11,427.21 650.11,427.21" fill="none" stroke="rgb(35, 38, 53)" stroke-width="30.00" stroke-opacity="1.00" stroke-linejoin="round"/>
<path d="M655.96,332.97 C655.96,332.97 655.44,333.40 655.44,333.40 C665.93,330.90 674.45,329.62 685.43,329.13 C696.76,328.78 701.66,328.49 704.93,328.14 C704.93,328.14 702.73,329.39 702.73,329.39" fill="none" stroke="rgb(35, 38, 53)" stroke-width="30.00" stroke-opacity="1.00" stroke-linejoin="round"/>
<path d="M651.49,373.17 C657.34,372.53 677.50,368.10 678.51,367.84 C679.85,367.51 680.60,367.41 680.75,367.55 C680.95,367.77 681.11,368.59 681.23,370.01" fill="none" stroke="rgb(35, 38, 53)" stroke-width="30.00" stroke-opacity="1.00" stroke-linejoin="round"/>
<path d="M654.04,436.87 C659.40,438.36 670.01,438.51 682.27,438.31 C686.95,438.20 695.53,438.01 699.44,437.92 C702.33,437.86 708.91,437.78 710.47,437.90 C710.66,437.91 710.89,437.94 711.14,437.99" fill="none" stroke="rgb(35, 38, 53)" stroke-width="30.00" stroke-opacity="1.00" stroke-linejoin="round"/>
</g>
</svg>
